<?xml version="1.0" encoding="UTF-8"?><svg id="Livello_1" xmlns="http://www.w3.org/2000/svg" xmlns:xlink="http://www.w3.org/1999/xlink" viewBox="0 0 350.04 30.35"><defs><style>.cls-1{fill:none;stroke:#000;stroke-miterlimit:10;}.cls-2{fill:url(#Sfumatura_senza_nome_2);}</style><linearGradient id="Sfumatura_senza_nome_2" x1="0" y1="15.18" x2="350.04" y2="15.18" gradientUnits="userSpaceOnUse"><stop offset="0" stop-color="#15aa00"/><stop offset=".08" stop-color="#1bb309"/><stop offset=".2" stop-color="#2ecc22"/><stop offset=".36" stop-color="#4df54b"/><stop offset=".39" stop-color="#55ff56"/><stop offset=".55" stop-color="#f95455"/><stop offset=".93" stop-color="#aa0c00"/></linearGradient></defs><path d="m24.85,30.25h-4.9v-9.85h-10v9.85H0V5.1h5.35V.05h15v14.9h4.5v15.3Zm-10.15-15.5V5.4h-4.6v9.35h4.6Z"/><path d="m45.25,26.55h-15.05V7.75h4v-3.85h11.05v4.15h-7.35v7.5h3.8v3.65h-3.8v3.45h7.35v3.9Z"/><path d="m72.8,26.45h-3.65v-14.95h-3.5v14.95h-4.1v-14.95h-3.5v14.95h-7.45V7.7h3.55v-3.9h15.3v3.95h3.35v18.7Z"/><path d="m92.15,26.45h-14.55V7.6h3.55v-3.8h11v22.65Zm-3.55-4V7.85h-3.45v14.6h3.45Z"/><path d="m112.15,11.5h-4v15.05h-3.7v-15.05h-7.35v-3.8h3.55v-3.35h11.5v7.15Z"/><path d="m131.6,26.55h-15.05V7.75h4v-3.85h11.05v4.15h-7.35v7.5h3.8v3.65h-3.8v3.45h7.35v3.9Z"/><path d="m153.35,30.25h-5.35v-5.1h-4.75v5.1h-9.95V5.1h4.75V0h15.3v30.25Zm-5.35-10.15v-9.95h-4.6v9.95h4.6Z"/><path d="m173.55,19.1h-7.55v7.35h-7V7.6h3.55v-3.8h11v15.3Zm-3.55-4.25v-7h-3.85v7h3.85Z"/><path d="m184.3,7.9h-7.45v-3.45h7.45v3.45Zm0,18.75h-7.45v-14.6h3.65v3.55h3.8v11.05Z"/><path d="m211.2,30.35h-24.85v-4.9h19.95v-5.2h-19.95V5.25h4.75V.75h20.1v4.9h-14.6v4.65h10.1v5.35h4.5v14.7Z"/><path d="m230.85,26.4h-11.1v-4h-3.45V7.6h3.45v-3.85h11.1v4.15h-6.85v14.5h6.85v4Z"/><path d="m250,26.4h-4v-3.75h-3.6v3.75h-7.45V7.6h3.55v-3.85h11.5v22.65Zm-4-7.55v-7.45h-3.45v7.45h3.45Z"/><path d="m278.29,26.45h-11.25V7.95h-3.5v18.5h-7.45V7.6h3.55v-3.8h11.7v18.55h3.5V3.8h3.45v22.65Z"/><path d="m306.64,26.45h-11.25V7.95h-3.5v18.5h-7.45V7.6h3.55v-3.8h11.7v18.55h3.5V3.8h3.45v22.65Z"/><path d="m326.64,26.55h-15.05V7.75h4v-3.85h11.05v4.15h-7.35v7.5h3.8v3.65h-3.8v3.45h7.35v3.9Z"/><path d="m350.04,26.45h-3.7v-7.35h-7.5v7.35h-7.45V7.6h4v-3.8h11.25v11.2h3.4v11.45Zm-7.6-11.6v-7h-3.45v7h3.45Z"/><path class="cls-2" d="m24.85,30.25h-4.9v-9.85h-10v9.85H0V5.1h5.35V.05h15v14.9h4.5v15.3Zm-10.15-15.5V5.4h-4.6v9.35h4.6Z"/><path class="cls-2" d="m45.25,26.55h-15.05V7.75h4v-3.85h11.05v4.15h-7.35v7.5h3.8v3.65h-3.8v3.45h7.35v3.9Z"/><path class="cls-2" d="m72.8,26.45h-3.65v-14.95h-3.5v14.95h-4.1v-14.95h-3.5v14.95h-7.45V7.7h3.55v-3.9h15.3v3.95h3.35v18.7Z"/><path class="cls-2" d="m92.15,26.45h-14.55V7.6h3.55v-3.8h11v22.65Zm-3.55-4V7.85h-3.45v14.6h3.45Z"/><path class="cls-2" d="m112.15,11.5h-4v15.05h-3.7v-15.05h-7.35v-3.8h3.55v-3.35h11.5v7.15Z"/><path class="cls-2" d="m131.6,26.55h-15.05V7.75h4v-3.85h11.05v4.15h-7.35v7.5h3.8v3.65h-3.8v3.45h7.35v3.9Z"/><path class="cls-2" d="m153.35,30.25h-5.35v-5.1h-4.75v5.1h-9.95V5.1h4.75V0h15.3v30.25Zm-5.35-10.15v-9.95h-4.6v9.95h4.6Z"/><path class="cls-2" d="m173.55,19.1h-7.55v7.35h-7V7.6h3.55v-3.8h11v15.3Zm-3.55-4.25v-7h-3.85v7h3.85Z"/><path class="cls-2" d="m184.3,7.9h-7.45v-3.45h7.45v3.45Zm0,18.75h-7.45v-14.6h3.65v3.55h3.8v11.05Z"/><path class="cls-2" d="m211.2,30.35h-24.85v-4.9h19.95v-5.2h-19.95V5.25h4.75V.75h20.1v4.9h-14.6v4.65h10.1v5.35h4.5v14.7Z"/><path class="cls-2" d="m230.85,26.4h-11.1v-4h-3.45V7.6h3.45v-3.85h11.1v4.15h-6.85v14.5h6.85v4Z"/><path class="cls-2" d="m250,26.4h-4v-3.75h-3.6v3.75h-7.45V7.6h3.55v-3.85h11.5v22.65Zm-4-7.55v-7.45h-3.45v7.45h3.45Z"/><path class="cls-2" d="m278.29,26.45h-11.25V7.95h-3.5v18.5h-7.45V7.6h3.55v-3.8h11.7v18.55h3.5V3.8h3.45v22.65Z"/><path class="cls-2" d="m306.64,26.45h-11.25V7.95h-3.5v18.5h-7.45V7.6h3.55v-3.8h11.7v18.55h3.5V3.8h3.45v22.65Z"/><path class="cls-2" d="m326.64,26.55h-15.05V7.75h4v-3.85h11.05v4.15h-7.35v7.5h3.8v3.65h-3.8v3.45h7.35v3.9Z"/><path class="cls-2" d="m350.04,26.45h-3.7v-7.35h-7.5v7.35h-7.45V7.6h4v-3.8h11.25v11.2h3.4v11.45Zm-7.6-11.6v-7h-3.45v7h3.45Z"/><path class="cls-1" d="m24.85,30.25h-4.9v-9.85h-10v9.85H0V5.1h5.35V.05h15v14.9h4.5v15.3Zm-10.15-15.5V5.4h-4.6v9.35h4.6Z"/><path class="cls-1" d="m45.25,26.55h-15.05V7.75h4v-3.85h11.05v4.15h-7.35v7.5h3.8v3.65h-3.8v3.45h7.35v3.9Z"/><path class="cls-1" d="m72.8,26.45h-3.65v-14.95h-3.5v14.95h-4.1v-14.95h-3.5v14.95h-7.45V7.7h3.55v-3.9h15.3v3.95h3.35v18.7Z"/><path class="cls-1" d="m92.15,26.45h-14.55V7.6h3.55v-3.8h11v22.65Zm-3.55-4V7.85h-3.45v14.6h3.45Z"/><path class="cls-1" d="m112.15,11.5h-4v15.05h-3.7v-15.05h-7.35v-3.8h3.55v-3.35h11.5v7.15Z"/><path class="cls-1" d="m131.6,26.55h-15.05V7.75h4v-3.85h11.05v4.15h-7.35v7.5h3.8v3.65h-3.8v3.45h7.35v3.9Z"/><path class="cls-1" d="m153.35,30.25h-5.35v-5.1h-4.75v5.1h-9.95V5.1h4.75V0h15.3v30.25Zm-5.35-10.15v-9.95h-4.6v9.95h4.6Z"/><path class="cls-1" d="m173.55,19.1h-7.55v7.35h-7V7.6h3.55v-3.8h11v15.3Zm-3.55-4.25v-7h-3.85v7h3.85Z"/><path class="cls-1" d="m184.3,7.9h-7.45v-3.45h7.45v3.45Zm0,18.75h-7.45v-14.6h3.65v3.55h3.8v11.05Z"/><path class="cls-1" d="m211.2,30.35h-24.85v-4.9h19.95v-5.2h-19.95V5.25h4.75V.75h20.1v4.9h-14.6v4.65h10.1v5.35h4.5v14.7Z"/><path class="cls-1" d="m230.85,26.4h-11.1v-4h-3.45V7.6h3.45v-3.85h11.1v4.15h-6.85v14.5h6.85v4Z"/><path class="cls-1" d="m250,26.4h-4v-3.75h-3.6v3.75h-7.45V7.6h3.55v-3.85h11.5v22.65Zm-4-7.55v-7.45h-3.45v7.45h3.45Z"/><path class="cls-1" d="m278.29,26.45h-11.25V7.95h-3.5v18.5h-7.45V7.6h3.55v-3.8h11.7v18.55h3.5V3.8h3.45v22.65Z"/><path class="cls-1" d="m306.64,26.45h-11.25V7.95h-3.5v18.5h-7.45V7.6h3.55v-3.8h11.7v18.55h3.5V3.8h3.45v22.65Z"/><path class="cls-1" d="m326.64,26.55h-15.05V7.75h4v-3.85h11.05v4.15h-7.35v7.5h3.8v3.65h-3.8v3.45h7.35v3.9Z"/><path class="cls-1" d="m350.04,26.45h-3.7v-7.35h-7.5v7.35h-7.45V7.6h4v-3.8h11.25v11.2h3.4v11.45Zm-7.6-11.6v-7h-3.45v7h3.45Z"/></svg>